<svg width="141" height="127" viewBox="0 0 141 127" fill="none" xmlns="http://www.w3.org/2000/svg">
<g clip-path="url(#clip0_8_2945)">
<path d="M67.3911 62.1359C69.1047 63.9714 71.8953 63.9714 73.6333 62.1359L100.291 33.8089C108.027 25.5737 107.586 11.9312 98.9203 4.34093C91.3807 -2.28192 80.1448 -1.09129 73.2417 6.25089L70.5 9.15304L67.7828 6.2757C60.8797 -1.09129 49.6437 -2.28192 42.1042 4.34093C33.463 11.9312 32.9979 25.5737 40.7333 33.8089L67.3911 62.1359ZM138.381 81.3843C135.492 78.7302 130.988 78.9038 127.953 81.3843L105.334 99.715C102.568 101.972 99.1161 103.188 95.5422 103.188H66.5833C64.4292 103.188 62.6667 101.402 62.6667 99.2189C62.6667 97.0361 64.4292 95.2501 66.5833 95.2501H85.7505C89.6427 95.2501 93.2656 92.5464 93.9021 88.6521C94.7099 83.6911 90.9401 79.3751 86.1667 79.3751H47C40.3906 79.3751 34.0016 81.6819 28.8609 85.8987L17.4781 95.2501H3.91667C1.7625 95.2501 0 97.0361 0 99.2189V123.031C0 125.214 1.7625 127 3.91667 127H91.2583C94.8078 127 98.2594 125.785 101.05 123.527L138.062 93.5138C141.783 90.5124 142.077 84.7577 138.381 81.3843Z" fill="white" fill-opacity="0.3"/>
</g>
<defs>
<clipPath id="clip0_8_2945">
<rect width="141" height="127" fill="white"/>
</clipPath>
</defs>
</svg>
