<svg width="135" height="127" viewBox="0 0 135 127" fill="none" xmlns="http://www.w3.org/2000/svg">
<g clip-path="url(#clip0_8_2961)">
<path d="M59.2305 2.02307C56.6702 2.02307 54.5962 3.89111 54.5962 6.20117V27.0837H47.1047V5.78644C47.1047 2.58911 44.2302 0 40.6846 0C37.1345 0 34.2603 2.58911 34.2603 5.78644V27.0835H26.7732V6.20117C26.7732 3.89111 24.6948 2.02307 22.1345 2.02307C19.5742 2.02307 17.4958 3.89136 17.4958 6.20117V32.8662H17.582C18.2879 37.7341 23.7354 42.3696 31.7603 44.3694V117.365C31.7603 121.799 35.7578 125.395 40.6846 125.395C45.6072 125.395 49.5959 121.799 49.5959 117.365V44.1757C56.5669 42.385 63.0642 38.5906 63.7915 32.8662H63.8647V6.20117C63.8647 3.89136 61.7908 2.02307 59.2305 2.02307Z" fill="white" fill-opacity="0.3"/>
<path d="M100.04 3.97644C94.8635 2.39514 87.0449 1.44934 87.0449 8.604C87.0449 8.604 87.0449 112.683 87.0449 118.582C87.0449 124.473 90.7842 127 95.4573 127C100.13 127 103.865 124.473 103.865 119.419C103.865 114.373 103.865 73.4606 103.865 73.4606C103.865 73.4606 113.685 73.4606 117.893 73.4606C122.102 73.4606 123.504 68.8251 123.504 65.4534C123.504 65.4534 123.504 52.8107 123.504 42.2843C123.504 19.4174 110.991 7.33301 100.04 3.97644Z" fill="white" fill-opacity="0.3"/>
</g>
<defs>
<clipPath id="clip0_8_2961">
<rect width="135" height="127" fill="white"/>
</clipPath>
</defs>
</svg>
