<svg width="26" height="24" viewBox="0 0 26 24" fill="none" xmlns="http://www.w3.org/2000/svg">
<path d="M12.3832 0.146318C12.5339 0.0523478 12.7168 0.0010723 12.905 1.66333e-05C13.0932 -0.00103903 13.2769 0.0481807 13.4291 0.140453C15.7179 1.52863 18.5291 2.3547 20.8085 2.83274C21.9412 3.07029 22.9272 3.21889 23.6279 3.30785C23.97 3.35107 24.3132 3.3879 24.6573 3.41831L24.7101 3.4232H24.7242C24.944 3.43888 25.1488 3.52273 25.2979 3.65815C25.447 3.79357 25.5296 3.97069 25.5294 4.15444V10.7532C25.5294 15.474 21.7581 21.1303 13.1814 23.4267C13.0059 23.4738 12.817 23.4738 12.6415 23.4267C4.08236 21.1342 0 15.4877 0 10.5088V4.15444C0 3.77318 0.35213 3.45449 0.809899 3.4232H0.825158L0.881498 3.41831C0.93197 3.4144 1.00826 3.40854 1.10921 3.39876C1.30875 3.38019 1.60454 3.35086 1.97427 3.30687C2.71375 3.21791 3.75018 3.06834 4.92747 2.83078C7.302 2.35176 10.1754 1.5257 12.3832 0.146318ZM19.6864 8.10293C19.8542 7.96759 19.9506 7.78228 19.9543 7.58776C19.958 7.39324 19.8689 7.20545 19.7064 7.06571C19.5439 6.92596 19.3214 6.8457 19.0878 6.84258C18.8543 6.83946 18.6288 6.91375 18.461 7.04909L9.95823 13.902L7.34073 11.9214C7.16678 11.7972 6.94154 11.7344 6.71287 11.7463C6.48419 11.7582 6.2701 11.8439 6.11607 11.9851C5.96203 12.1264 5.8802 12.3121 5.88795 12.5028C5.8957 12.6936 5.99243 12.8743 6.15758 13.0065L9.38543 15.4505C9.55098 15.5758 9.7676 15.644 9.99129 15.6411C10.215 15.6382 10.4289 15.5644 10.5897 15.4349L19.6864 8.10293Z" fill="#79ADDC"/>
</svg>
