<svg width="362" height="195" viewBox="0 0 362 195" fill="none" xmlns="http://www.w3.org/2000/svg">
<path d="M362 194.746V-1.52588e-05L318.951 34.7259C299.822 50.1971 299.822 75.2816 318.951 90.7527L319.993 91.5655C322.596 93.6676 322.596 97.0869 319.993 99.217C317.354 101.319 313.119 101.319 310.515 99.217L252.816 52.6355C243.755 45.3203 229.035 45.3203 219.974 52.6355C210.878 59.9506 210.878 71.8342 219.974 79.1494L303.225 146.387C305.689 148.349 305.689 151.544 303.225 153.534C300.794 155.496 296.837 155.496 294.372 153.534L238.165 108.13C222.092 95.181 196.089 95.181 180.05 108.13C163.976 121.078 163.976 142.099 180.05 155.048L216.815 184.729L194.561 187.195L93.5354 105.635C82.0442 96.3302 63.3665 96.3302 51.8406 105.635C40.3493 114.94 40.3493 130.019 51.8406 139.296C57.2911 143.696 81.454 163.204 84.9604 166.034C87.2169 167.856 87.2169 170.827 84.9256 172.677L84.8215 172.761C82.6343 174.527 79.0585 174.527 76.8714 172.761L66.4216 164.325C53.8194 154.151 33.3366 154.151 20.6997 164.325L0 194.746" fill="#F3FFFD" fill-opacity="0.2"/>
</svg>
