<svg width="91" height="79" viewBox="0 0 91 79" fill="none" xmlns="http://www.w3.org/2000/svg">
<path d="M0.019344 57.1456C0.019344 69.1097 9.71753 78.8079 21.6814 78.8079C33.6454 78.8079 43.3436 69.1097 43.3436 57.1456C43.3436 45.1816 33.6454 35.4836 21.6814 35.4836C19.2226 35.4836 16.869 35.9122 14.6657 36.6676C19.5406 8.70883 41.343 -9.3214 21.1322 5.51784C-1.27855 21.9729 -0.00465784 56.4836 0.0204187 57.1161C0.0204187 57.1259 0.019344 57.1347 0.019344 57.1456Z" fill="white" fill-opacity="0.2"/>
<path d="M47.6756 57.1456C47.6756 69.1097 57.3738 78.8079 69.3378 78.8079C81.3018 78.8079 91 69.1097 91 57.1456C91 45.1816 81.3017 35.4836 69.3376 35.4836C66.8787 35.4836 64.5253 35.9122 62.3219 36.6676C67.1968 8.70883 88.9993 -9.3214 68.7885 5.51784C46.3778 21.9729 47.6515 56.4836 47.6767 57.1161C47.6767 57.1259 47.6756 57.1347 47.6756 57.1456Z" fill="white" fill-opacity="0.2"/>
</svg>
