<svg width="148" height="509" viewBox="0 0 148 509" fill="none" xmlns="http://www.w3.org/2000/svg">
<path fill-rule="evenodd" clip-rule="evenodd" d="M0.000488281 59.6527C3.65563 59.1273 7.39502 58.855 11.1988 58.855C53.0041 58.855 86.9085 91.6254 86.9085 131.867V508.616H88.1359V131.867C88.1359 90.9596 53.6177 57.6714 11.1988 57.6714C7.39613 57.6714 3.65698 57.9389 0.000488281 58.4554V59.6527Z" fill="#599CD9"/>
<path fill-rule="evenodd" clip-rule="evenodd" d="M0.000366211 79.0261C3.61963 78.3139 7.36501 77.9399 11.1993 77.9399C42.0355 77.9399 67.1954 102.129 67.1954 131.867V508.616H68.346V131.867C68.346 101.464 42.7259 76.7563 11.1993 76.7563C7.36729 76.7563 3.62249 77.1214 0.000366211 77.8173V79.0261Z" fill="#599CD9"/>
<path fill-rule="evenodd" clip-rule="evenodd" d="M0.000366211 40.3977C3.67416 39.9828 7.41131 39.7695 11.1996 39.7695C63.8973 39.7695 106.7 81.0469 106.7 131.867V508.616H107.927V131.867C107.927 80.4551 64.5109 38.6599 11.1996 38.6599C7.41221 38.6599 3.67514 38.8709 0.000366211 39.2812V40.3977Z" fill="#599CD9"/>
<path fill-rule="evenodd" clip-rule="evenodd" d="M0.000244141 21.2039C3.68567 20.86 7.42141 20.6841 11.1991 20.6841C74.7892 20.6841 126.49 70.5425 126.49 131.867V508.616H127.64V131.867C127.64 69.9507 75.4028 19.5745 11.1991 19.5745C7.422 19.5745 3.68632 19.7488 0.000244141 20.0896V21.2039Z" fill="#599CD9"/>
<path fill-rule="evenodd" clip-rule="evenodd" d="M0.000427246 2.04224C3.69344 1.7486 7.4281 1.59887 11.1983 1.59887C85.6808 1.59887 146.279 60.0382 146.279 131.867V508.616H147.43V131.867C147.43 59.4464 86.3711 0.489258 11.1983 0.489258C7.42852 0.489258 3.6939 0.637831 0.000427246 0.929221V2.04224Z" fill="#599CD9"/>
</svg>
