<svg width="32" height="23" viewBox="0 0 32 23" fill="none" xmlns="http://www.w3.org/2000/svg">
<path d="M12.3681 0V1.95133C11.0102 1.4847 9.55419 1.24432 8.09816 1.24432C5.16973 1.24432 2.24131 2.20585 0 4.14303L5.44785 8.85167H7.2638V10.4212C8.67076 11.6373 10.5031 12.2736 12.3517 12.3443V15.554H7.46012V19.7961C7.46012 21.3515 8.93252 22.6241 10.7321 22.6241H27.092C29.8078 22.6241 32 20.7293 32 18.3821V0H12.3681ZM10.5521 9.06377V6.02366H6.82209L5.12065 4.55309C6.0706 4.23624 7.07993 4.07327 8.09816 4.07233C10.2904 4.07233 12.3354 4.80761 13.8896 6.13678L16.1963 8.13052L15.8691 8.41332C15.4581 8.77201 14.9688 9.05668 14.4297 9.25085C13.8905 9.44502 13.3121 9.54484 12.728 9.54453C11.9591 9.54453 11.2065 9.37485 10.5521 9.06377ZM28.728 18.3821C28.728 19.1598 27.9918 19.7961 27.092 19.7961C26.1922 19.7961 25.456 19.1598 25.456 18.3821V15.554H15.6401V11.8918C16.5726 11.5666 17.4397 11.0858 18.1922 10.4354L18.5194 10.1526L23.1493 14.14H25.456V12.1463L15.6401 3.70469V2.82801H28.728V18.3821Z" fill="#79ADDC"/>
</svg>
